# xmcd
# 
# Track frame offsets:
#     150
#     11379
#     24196
#     38267
#     53370
#     67274
#     78252
#     90679
#     101602
#     116398
#     131082
#     146073
#     157414
#     169116
#     183522
#     197036
#     210132
#     224212
#     236984
#     250041
#     262952
#     276275
#     286266
#     296812
#     309222
#     322261
# 
# Disc length: 4497
# 
# Revision: 3
# Processed by: cddbd v1.5.2PL0 Copyright (c) Steve Scherf et al.
# Submitted via: fre:ac v1.0.17
# 
DISCID=7c118f1a
DTITLE=Various Artist - Les Triomphes Du Jazz 2-17
DYEAR=0
DGENRE=Blues
TTITLE0=Sarah Vaughan - Interlude (A night in Tunisia)
TTITLE1=Sarah Vaughan - East of the sun
TTITLE2=Sarah Vaughan - Don't blame me
TTITLE3=Sarah Vaughan - Lover man
TTITLE4=Sarah Vaughan - September song
TTITLE5=Sarah Vaughan - I can't get started
TTITLE6=Sarah Vaughan - The man I love
TTITLE7=Sarah Vaughan - I cried for you
TTITLE8=Sarah Vaughan - Black coffee
TTITLE9=Sarah Vaughan - Summetime
TTITLE10=Sarah Vaughan - The nearness of you
TTITLE11=Sarah Vaughan - Perdido
TTITLE12=Sarah Vaughan - Nice work if you can get it
TTITLE13=Sarah Vaughan - It might as well be Spring
TTITLE14=Sarah Vaughan - Ain't misbehavin
TTITLE15=Dinah Washington - Evil Gal Blues
TTITLE16=Dinah Washington - Mellow Mama Blues
TTITLE17=Dinah Washington - All or nothing Blues
TTITLE18=Dinah Washington - Rich man's Blues
TTITLE19=Dinah Washington - Blues for a day
TTITLE20=Dinah Washington - Postman Blues
TTITLE21=Dinah Washington - Fast movin' Mama
TTITLE22=Dinah Washington - Shuckin' and jivin'
TTITLE23=Dinah Washington - Big deal
TTITLE24=Dinah Washington - I wanna be loved
TTITLE25=Dinah Washington - Time out for tears
EXTD=Sophisticated and bluesy ladies
EXTT0=
EXTT1=
EXTT2=
EXTT3=
EXTT4=
EXTT5=
EXTT6=
EXTT7=
EXTT8=
EXTT9=
EXTT10=
EXTT11=
EXTT12=
EXTT13=
EXTT14=
EXTT15=
EXTT16=
EXTT17=
EXTT18=
EXTT19=
EXTT20=
EXTT21=
EXTT22=
EXTT23=
EXTT24=
EXTT25=
PLAYORDER=
